%TF.GenerationSoftware,KiCad,Pcbnew,10.0.6*%
%TF.CreationDate,2026-10-04T20:12:51+08:00*%
%TF.ProjectId,usb2uart,75736232-7561-4727-942e-6b696361645f,rev?*%
%TF.SameCoordinates,Original*%
%TF.FileFunction,Soldermask,Top*%
%TF.FilePolarity,Negative*%
%FSLAX46Y46*%
G04 Gerber Fmt 4.6, Leading zero omitted, Abs format (unit mm)*
G04 Created by KiCad (PCBNEW 10.0.6) date 2026-10-04 20:12:51*
%MOMM*%
%LPD*%
G01*
G04 APERTURE LIST*
G04 Aperture macros list*
%AMRoundRect*
0 Rectangle with rounded corners*
0 $1 Rounding radius*
0 $2 $3 $4 $5 $6 $7 $8 $9 X,Y pos of 4 corners*
0 Add a 4 corners polygon primitive as box body*
4,1,4,$2,$3,$4,$5,$6,$7,$8,$9,$2,$3,0*
0 Add four circle primitives for the rounded corners*
1,1,$1+$1,$2,$3*
1,1,$1+$1,$4,$5*
1,1,$1+$1,$6,$7*
1,1,$1+$1,$8,$9*
0 Add four rect primitives between the rounded corners*
20,1,$1+$1,$2,$3,$4,$5,0*
20,1,$1+$1,$4,$5,$6,$7,0*
20,1,$1+$1,$6,$7,$8,$9,0*
20,1,$1+$1,$8,$9,$2,$3,0*%
G04 Aperture macros list end*
%ADD10C,0.850000*%
%ADD11R,0.850000X0.850000*%
%ADD12RoundRect,0.100000X-0.100000X0.130000X-0.100000X-0.130000X0.100000X-0.130000X0.100000X0.130000X0*%
%ADD13RoundRect,0.162500X-0.162500X0.825000X-0.162500X-0.825000X0.162500X-0.825000X0.162500X0.825000X0*%
%ADD14RoundRect,0.100000X0.100000X-0.130000X0.100000X0.130000X-0.100000X0.130000X-0.100000X-0.130000X0*%
%ADD15RoundRect,0.100000X-0.130000X-0.100000X0.130000X-0.100000X0.130000X0.100000X-0.130000X0.100000X0*%
%ADD16C,1.100000*%
%ADD17RoundRect,0.175000X-0.725000X0.175000X-0.725000X-0.175000X0.725000X-0.175000X0.725000X0.175000X0*%
%ADD18RoundRect,0.175000X0.725000X0.175000X-0.725000X0.175000X-0.725000X-0.175000X0.725000X-0.175000X0*%
%ADD19O,4.000000X1.600000*%
G04 APERTURE END LIST*
D10*
%TO.C,J2*%
X39750000Y-29750000D03*
X40750000Y-29750000D03*
X41750000Y-29750000D03*
X42750000Y-29750000D03*
D11*
X43750000Y-29750000D03*
%TD*%
D12*
%TO.C,C1*%
X37750000Y-43570000D03*
X37750000Y-42930000D03*
%TD*%
D13*
%TO.C,U1*%
X43155000Y-42287500D03*
X41885000Y-42287500D03*
X40615000Y-42287500D03*
X39345000Y-42287500D03*
X39345000Y-37212500D03*
X40615000Y-37212500D03*
X41885000Y-37212500D03*
X43155000Y-37212500D03*
%TD*%
D12*
%TO.C,D1*%
X41250000Y-33890000D03*
X41250000Y-33250000D03*
%TD*%
%TO.C,D2*%
X42500000Y-33820000D03*
X42500000Y-33180000D03*
%TD*%
D14*
%TO.C,R2*%
X41250000Y-34680000D03*
X41250000Y-35320000D03*
%TD*%
%TO.C,R3*%
X42500000Y-34680000D03*
X42500000Y-35320000D03*
%TD*%
D12*
%TO.C,C3*%
X38000000Y-28915000D03*
X38000000Y-28275000D03*
%TD*%
D15*
%TO.C,R1*%
X35820000Y-28750000D03*
X35180000Y-28750000D03*
%TD*%
D14*
%TO.C,C2*%
X43750000Y-33820000D03*
X43750000Y-33180000D03*
%TD*%
D16*
%TO.C,J1*%
X32725000Y-38500000D03*
X32725000Y-34000000D03*
D17*
X35175000Y-39250000D03*
X35175000Y-37250000D03*
X35175000Y-35250000D03*
X35175000Y-33250000D03*
X35175000Y-32250000D03*
X35175000Y-34250000D03*
X35175000Y-36250000D03*
X35175000Y-38250000D03*
D18*
X35175000Y-40250000D03*
D19*
X32725000Y-42100000D03*
X32725000Y-30400000D03*
%TD*%
M02*
