%TF.GenerationSoftware,KiCad,Pcbnew,10.0.6*%
%TF.CreationDate,2026-10-04T20:12:51+08:00*%
%TF.ProjectId,usb2uart,75736232-7561-4727-942e-6b696361645f,rev?*%
%TF.SameCoordinates,Original*%
%TF.FileFunction,Legend,Top*%
%TF.FilePolarity,Positive*%
%FSLAX46Y46*%
G04 Gerber Fmt 4.6, Leading zero omitted, Abs format (unit mm)*
G04 Created by KiCad (PCBNEW 10.0.6) date 2026-10-04 20:12:51*
%MOMM*%
%LPD*%
G01*
G04 APERTURE LIST*
G04 Aperture macros list*
%AMRoundRect*
0 Rectangle with rounded corners*
0 $1 Rounding radius*
0 $2 $3 $4 $5 $6 $7 $8 $9 X,Y pos of 4 corners*
0 Add a 4 corners polygon primitive as box body*
4,1,4,$2,$3,$4,$5,$6,$7,$8,$9,$2,$3,0*
0 Add four circle primitives for the rounded corners*
1,1,$1+$1,$2,$3*
1,1,$1+$1,$4,$5*
1,1,$1+$1,$6,$7*
1,1,$1+$1,$8,$9*
0 Add four rect primitives between the rounded corners*
20,1,$1+$1,$2,$3,$4,$5,0*
20,1,$1+$1,$4,$5,$6,$7,0*
20,1,$1+$1,$6,$7,$8,$9,0*
20,1,$1+$1,$8,$9,$2,$3,0*%
G04 Aperture macros list end*
%ADD10C,0.150000*%
%ADD11C,0.100000*%
%ADD12C,0.120000*%
%ADD13C,0.850000*%
%ADD14R,0.850000X0.850000*%
%ADD15RoundRect,0.100000X-0.100000X0.130000X-0.100000X-0.130000X0.100000X-0.130000X0.100000X0.130000X0*%
%ADD16RoundRect,0.162500X-0.162500X0.825000X-0.162500X-0.825000X0.162500X-0.825000X0.162500X0.825000X0*%
%ADD17RoundRect,0.100000X0.100000X-0.130000X0.100000X0.130000X-0.100000X0.130000X-0.100000X-0.130000X0*%
%ADD18RoundRect,0.100000X-0.130000X-0.100000X0.130000X-0.100000X0.130000X0.100000X-0.130000X0.100000X0*%
%ADD19C,1.100000*%
%ADD20RoundRect,0.175000X-0.725000X0.175000X-0.725000X-0.175000X0.725000X-0.175000X0.725000X0.175000X0*%
%ADD21RoundRect,0.175000X0.725000X0.175000X-0.725000X0.175000X-0.725000X-0.175000X0.725000X-0.175000X0*%
%ADD22O,4.000000X1.600000*%
G04 APERTURE END LIST*
D10*
X45369819Y-43794173D02*
X46179342Y-43794173D01*
X46179342Y-43794173D02*
X46274580Y-43722744D01*
X46274580Y-43722744D02*
X46322200Y-43651316D01*
X46322200Y-43651316D02*
X46369819Y-43508458D01*
X46369819Y-43508458D02*
X46369819Y-43222744D01*
X46369819Y-43222744D02*
X46322200Y-43079887D01*
X46322200Y-43079887D02*
X46274580Y-43008458D01*
X46274580Y-43008458D02*
X46179342Y-42937030D01*
X46179342Y-42937030D02*
X45369819Y-42937030D01*
X45465057Y-42294172D02*
X45417438Y-42222744D01*
X45417438Y-42222744D02*
X45369819Y-42079887D01*
X45369819Y-42079887D02*
X45369819Y-41722744D01*
X45369819Y-41722744D02*
X45417438Y-41579887D01*
X45417438Y-41579887D02*
X45465057Y-41508458D01*
X45465057Y-41508458D02*
X45560295Y-41437029D01*
X45560295Y-41437029D02*
X45655533Y-41437029D01*
X45655533Y-41437029D02*
X45798390Y-41508458D01*
X45798390Y-41508458D02*
X46369819Y-42365601D01*
X46369819Y-42365601D02*
X46369819Y-41437029D01*
X45369819Y-40794173D02*
X46179342Y-40794173D01*
X46179342Y-40794173D02*
X46274580Y-40722744D01*
X46274580Y-40722744D02*
X46322200Y-40651316D01*
X46322200Y-40651316D02*
X46369819Y-40508458D01*
X46369819Y-40508458D02*
X46369819Y-40222744D01*
X46369819Y-40222744D02*
X46322200Y-40079887D01*
X46322200Y-40079887D02*
X46274580Y-40008458D01*
X46274580Y-40008458D02*
X46179342Y-39937030D01*
X46179342Y-39937030D02*
X45369819Y-39937030D01*
X45369819Y-39365601D02*
X45369819Y-38437029D01*
X45369819Y-38437029D02*
X45750771Y-38937029D01*
X45750771Y-38937029D02*
X45750771Y-38722744D01*
X45750771Y-38722744D02*
X45798390Y-38579887D01*
X45798390Y-38579887D02*
X45846009Y-38508458D01*
X45846009Y-38508458D02*
X45941247Y-38437029D01*
X45941247Y-38437029D02*
X46179342Y-38437029D01*
X46179342Y-38437029D02*
X46274580Y-38508458D01*
X46274580Y-38508458D02*
X46322200Y-38579887D01*
X46322200Y-38579887D02*
X46369819Y-38722744D01*
X46369819Y-38722744D02*
X46369819Y-39151315D01*
X46369819Y-39151315D02*
X46322200Y-39294172D01*
X46322200Y-39294172D02*
X46274580Y-39365601D01*
X45703152Y-37151316D02*
X46369819Y-37151316D01*
X45322200Y-37508458D02*
X46036485Y-37865601D01*
X46036485Y-37865601D02*
X46036485Y-36937030D01*
X45369819Y-36079887D02*
X45369819Y-35937030D01*
X45369819Y-35937030D02*
X45417438Y-35794173D01*
X45417438Y-35794173D02*
X45465057Y-35722745D01*
X45465057Y-35722745D02*
X45560295Y-35651316D01*
X45560295Y-35651316D02*
X45750771Y-35579887D01*
X45750771Y-35579887D02*
X45988866Y-35579887D01*
X45988866Y-35579887D02*
X46179342Y-35651316D01*
X46179342Y-35651316D02*
X46274580Y-35722745D01*
X46274580Y-35722745D02*
X46322200Y-35794173D01*
X46322200Y-35794173D02*
X46369819Y-35937030D01*
X46369819Y-35937030D02*
X46369819Y-36079887D01*
X46369819Y-36079887D02*
X46322200Y-36222745D01*
X46322200Y-36222745D02*
X46274580Y-36294173D01*
X46274580Y-36294173D02*
X46179342Y-36365602D01*
X46179342Y-36365602D02*
X45988866Y-36437030D01*
X45988866Y-36437030D02*
X45750771Y-36437030D01*
X45750771Y-36437030D02*
X45560295Y-36365602D01*
X45560295Y-36365602D02*
X45465057Y-36294173D01*
X45465057Y-36294173D02*
X45417438Y-36222745D01*
X45417438Y-36222745D02*
X45369819Y-36079887D01*
X46369819Y-34937031D02*
X45369819Y-34937031D01*
X45369819Y-34937031D02*
X46369819Y-34079888D01*
X46369819Y-34079888D02*
X45369819Y-34079888D01*
X45703152Y-33508459D02*
X46369819Y-33151316D01*
X46369819Y-33151316D02*
X45703152Y-32794173D01*
X46465057Y-32579888D02*
X46465057Y-31437030D01*
X46369819Y-30294173D02*
X46369819Y-31151316D01*
X46369819Y-30722745D02*
X45369819Y-30722745D01*
X45369819Y-30722745D02*
X45512676Y-30865602D01*
X45512676Y-30865602D02*
X45607914Y-31008459D01*
X45607914Y-31008459D02*
X45655533Y-31151316D01*
X46274580Y-29651317D02*
X46322200Y-29579888D01*
X46322200Y-29579888D02*
X46369819Y-29651317D01*
X46369819Y-29651317D02*
X46322200Y-29722745D01*
X46322200Y-29722745D02*
X46274580Y-29651317D01*
X46274580Y-29651317D02*
X46369819Y-29651317D01*
X45369819Y-28651316D02*
X45369819Y-28508459D01*
X45369819Y-28508459D02*
X45417438Y-28365602D01*
X45417438Y-28365602D02*
X45465057Y-28294174D01*
X45465057Y-28294174D02*
X45560295Y-28222745D01*
X45560295Y-28222745D02*
X45750771Y-28151316D01*
X45750771Y-28151316D02*
X45988866Y-28151316D01*
X45988866Y-28151316D02*
X46179342Y-28222745D01*
X46179342Y-28222745D02*
X46274580Y-28294174D01*
X46274580Y-28294174D02*
X46322200Y-28365602D01*
X46322200Y-28365602D02*
X46369819Y-28508459D01*
X46369819Y-28508459D02*
X46369819Y-28651316D01*
X46369819Y-28651316D02*
X46322200Y-28794174D01*
X46322200Y-28794174D02*
X46274580Y-28865602D01*
X46274580Y-28865602D02*
X46179342Y-28937031D01*
X46179342Y-28937031D02*
X45988866Y-29008459D01*
X45988866Y-29008459D02*
X45750771Y-29008459D01*
X45750771Y-29008459D02*
X45560295Y-28937031D01*
X45560295Y-28937031D02*
X45465057Y-28865602D01*
X45465057Y-28865602D02*
X45417438Y-28794174D01*
X45417438Y-28794174D02*
X45369819Y-28651316D01*
X47060295Y-41508458D02*
X47060295Y-40508458D01*
X47250771Y-41365601D02*
X47250771Y-40508458D01*
X46869819Y-41294173D02*
X46869819Y-40579887D01*
X46965057Y-41294173D02*
X47250771Y-41437030D01*
X46774580Y-41222744D02*
X46917438Y-41508458D01*
X47774580Y-41008458D02*
X47869819Y-41294173D01*
X46965057Y-41008458D02*
X47250771Y-41079887D01*
X47679342Y-40579887D02*
X47869819Y-40579887D01*
X47726961Y-40222744D02*
X47822200Y-39722744D01*
X47584104Y-40008458D02*
X47679342Y-39722744D01*
X46965057Y-41294173D02*
X46965057Y-40651316D01*
X46965057Y-40651316D02*
X47346009Y-40722744D01*
X47346009Y-40722744D02*
X47488866Y-41008458D01*
X47488866Y-41008458D02*
X47584104Y-40722744D01*
X47441247Y-40294173D02*
X47679342Y-41008458D01*
X47679342Y-41008458D02*
X47679342Y-39865601D01*
X46869819Y-40365601D02*
X47107914Y-40222744D01*
X47107914Y-40222744D02*
X47250771Y-40008458D01*
X47250771Y-40008458D02*
X47346009Y-39651316D01*
X46726961Y-40294173D02*
X46917438Y-40365601D01*
X46917438Y-40365601D02*
X46917438Y-39794173D01*
X46917438Y-39794173D02*
X47060295Y-39937030D01*
X47060295Y-39937030D02*
X47203152Y-40151316D01*
X47203152Y-40151316D02*
X47298390Y-40579887D01*
X46869819Y-39222744D02*
X46869819Y-37437030D01*
X47250771Y-38865601D02*
X47869819Y-38865601D01*
X47203152Y-38794172D02*
X47488866Y-39294172D01*
X47060295Y-38722744D02*
X47298390Y-38865601D01*
X46726961Y-38651315D02*
X47012676Y-38651315D01*
X47869819Y-38222744D02*
X47869819Y-37508458D01*
X47060295Y-38222744D02*
X47822200Y-38222744D01*
X46726961Y-38008458D02*
X47012676Y-38008458D01*
X47203152Y-37579887D02*
X47441247Y-38294172D01*
X47679342Y-37437030D02*
X47869819Y-37508458D01*
X47869819Y-36865601D02*
X46869819Y-36865601D01*
X46869819Y-36865601D02*
X47869819Y-36008458D01*
X47869819Y-36008458D02*
X46869819Y-36008458D01*
X47869819Y-35294172D02*
X47203152Y-35294172D01*
X46869819Y-35294172D02*
X46917438Y-35365600D01*
X46917438Y-35365600D02*
X46965057Y-35294172D01*
X46965057Y-35294172D02*
X46917438Y-35222743D01*
X46917438Y-35222743D02*
X46869819Y-35294172D01*
X46869819Y-35294172D02*
X46965057Y-35294172D01*
X47203152Y-33937029D02*
X48012676Y-33937029D01*
X48012676Y-33937029D02*
X48107914Y-34008457D01*
X48107914Y-34008457D02*
X48155533Y-34079886D01*
X48155533Y-34079886D02*
X48203152Y-34222743D01*
X48203152Y-34222743D02*
X48203152Y-34437029D01*
X48203152Y-34437029D02*
X48155533Y-34579886D01*
X47822200Y-33937029D02*
X47869819Y-34079886D01*
X47869819Y-34079886D02*
X47869819Y-34365600D01*
X47869819Y-34365600D02*
X47822200Y-34508457D01*
X47822200Y-34508457D02*
X47774580Y-34579886D01*
X47774580Y-34579886D02*
X47679342Y-34651314D01*
X47679342Y-34651314D02*
X47393628Y-34651314D01*
X47393628Y-34651314D02*
X47298390Y-34579886D01*
X47298390Y-34579886D02*
X47250771Y-34508457D01*
X47250771Y-34508457D02*
X47203152Y-34365600D01*
X47203152Y-34365600D02*
X47203152Y-34079886D01*
X47203152Y-34079886D02*
X47250771Y-33937029D01*
X47869819Y-33222743D02*
X47203152Y-33222743D01*
X46869819Y-33222743D02*
X46917438Y-33294171D01*
X46917438Y-33294171D02*
X46965057Y-33222743D01*
X46965057Y-33222743D02*
X46917438Y-33151314D01*
X46917438Y-33151314D02*
X46869819Y-33222743D01*
X46869819Y-33222743D02*
X46965057Y-33222743D01*
X47203152Y-32651314D02*
X47869819Y-32294171D01*
X47203152Y-31937028D02*
X47869819Y-32294171D01*
X47869819Y-32294171D02*
X48107914Y-32437028D01*
X48107914Y-32437028D02*
X48155533Y-32508457D01*
X48155533Y-32508457D02*
X48203152Y-32651314D01*
X47869819Y-30722743D02*
X47346009Y-30722743D01*
X47346009Y-30722743D02*
X47250771Y-30794171D01*
X47250771Y-30794171D02*
X47203152Y-30937028D01*
X47203152Y-30937028D02*
X47203152Y-31222743D01*
X47203152Y-31222743D02*
X47250771Y-31365600D01*
X47822200Y-30722743D02*
X47869819Y-30865600D01*
X47869819Y-30865600D02*
X47869819Y-31222743D01*
X47869819Y-31222743D02*
X47822200Y-31365600D01*
X47822200Y-31365600D02*
X47726961Y-31437028D01*
X47726961Y-31437028D02*
X47631723Y-31437028D01*
X47631723Y-31437028D02*
X47536485Y-31365600D01*
X47536485Y-31365600D02*
X47488866Y-31222743D01*
X47488866Y-31222743D02*
X47488866Y-30865600D01*
X47488866Y-30865600D02*
X47441247Y-30722743D01*
X47869819Y-30008457D02*
X46869819Y-30008457D01*
X47488866Y-29865600D02*
X47869819Y-29437028D01*
X47203152Y-29437028D02*
X47584104Y-30008457D01*
X47869819Y-28151314D02*
X47346009Y-28151314D01*
X47346009Y-28151314D02*
X47250771Y-28222742D01*
X47250771Y-28222742D02*
X47203152Y-28365599D01*
X47203152Y-28365599D02*
X47203152Y-28651314D01*
X47203152Y-28651314D02*
X47250771Y-28794171D01*
X47822200Y-28151314D02*
X47869819Y-28294171D01*
X47869819Y-28294171D02*
X47869819Y-28651314D01*
X47869819Y-28651314D02*
X47822200Y-28794171D01*
X47822200Y-28794171D02*
X47726961Y-28865599D01*
X47726961Y-28865599D02*
X47631723Y-28865599D01*
X47631723Y-28865599D02*
X47536485Y-28794171D01*
X47536485Y-28794171D02*
X47488866Y-28651314D01*
X47488866Y-28651314D02*
X47488866Y-28294171D01*
X47488866Y-28294171D02*
X47441247Y-28151314D01*
D11*
X36184836Y-39243133D02*
X36565789Y-39243133D01*
X36375312Y-39433609D02*
X36375312Y-39052657D01*
X37041979Y-38933609D02*
X36803884Y-38933609D01*
X36803884Y-38933609D02*
X36780075Y-39171704D01*
X36780075Y-39171704D02*
X36803884Y-39147895D01*
X36803884Y-39147895D02*
X36851503Y-39124085D01*
X36851503Y-39124085D02*
X36970551Y-39124085D01*
X36970551Y-39124085D02*
X37018170Y-39147895D01*
X37018170Y-39147895D02*
X37041979Y-39171704D01*
X37041979Y-39171704D02*
X37065789Y-39219323D01*
X37065789Y-39219323D02*
X37065789Y-39338371D01*
X37065789Y-39338371D02*
X37041979Y-39385990D01*
X37041979Y-39385990D02*
X37018170Y-39409800D01*
X37018170Y-39409800D02*
X36970551Y-39433609D01*
X36970551Y-39433609D02*
X36851503Y-39433609D01*
X36851503Y-39433609D02*
X36803884Y-39409800D01*
X36803884Y-39409800D02*
X36780075Y-39385990D01*
X37208646Y-38933609D02*
X37375312Y-39433609D01*
X37375312Y-39433609D02*
X37541979Y-38933609D01*
X36434836Y-37433609D02*
X36434836Y-36933609D01*
X36434836Y-36933609D02*
X36553884Y-36933609D01*
X36553884Y-36933609D02*
X36625312Y-36957419D01*
X36625312Y-36957419D02*
X36672931Y-37005038D01*
X36672931Y-37005038D02*
X36696741Y-37052657D01*
X36696741Y-37052657D02*
X36720550Y-37147895D01*
X36720550Y-37147895D02*
X36720550Y-37219323D01*
X36720550Y-37219323D02*
X36696741Y-37314561D01*
X36696741Y-37314561D02*
X36672931Y-37362180D01*
X36672931Y-37362180D02*
X36625312Y-37409800D01*
X36625312Y-37409800D02*
X36553884Y-37433609D01*
X36553884Y-37433609D02*
X36434836Y-37433609D01*
X36934836Y-37243133D02*
X37315789Y-37243133D01*
X36696741Y-32957419D02*
X36649122Y-32933609D01*
X36649122Y-32933609D02*
X36577693Y-32933609D01*
X36577693Y-32933609D02*
X36506265Y-32957419D01*
X36506265Y-32957419D02*
X36458646Y-33005038D01*
X36458646Y-33005038D02*
X36434836Y-33052657D01*
X36434836Y-33052657D02*
X36411027Y-33147895D01*
X36411027Y-33147895D02*
X36411027Y-33219323D01*
X36411027Y-33219323D02*
X36434836Y-33314561D01*
X36434836Y-33314561D02*
X36458646Y-33362180D01*
X36458646Y-33362180D02*
X36506265Y-33409800D01*
X36506265Y-33409800D02*
X36577693Y-33433609D01*
X36577693Y-33433609D02*
X36625312Y-33433609D01*
X36625312Y-33433609D02*
X36696741Y-33409800D01*
X36696741Y-33409800D02*
X36720550Y-33385990D01*
X36720550Y-33385990D02*
X36720550Y-33219323D01*
X36720550Y-33219323D02*
X36625312Y-33219323D01*
X36934836Y-33433609D02*
X36934836Y-32933609D01*
X36934836Y-32933609D02*
X37220550Y-33433609D01*
X37220550Y-33433609D02*
X37220550Y-32933609D01*
X37458646Y-33433609D02*
X37458646Y-32933609D01*
X37458646Y-32933609D02*
X37577694Y-32933609D01*
X37577694Y-32933609D02*
X37649122Y-32957419D01*
X37649122Y-32957419D02*
X37696741Y-33005038D01*
X37696741Y-33005038D02*
X37720551Y-33052657D01*
X37720551Y-33052657D02*
X37744360Y-33147895D01*
X37744360Y-33147895D02*
X37744360Y-33219323D01*
X37744360Y-33219323D02*
X37720551Y-33314561D01*
X37720551Y-33314561D02*
X37696741Y-33362180D01*
X37696741Y-33362180D02*
X37649122Y-33409800D01*
X37649122Y-33409800D02*
X37577694Y-33433609D01*
X37577694Y-33433609D02*
X37458646Y-33433609D01*
X36434836Y-35433609D02*
X36434836Y-34933609D01*
X36434836Y-34933609D02*
X36553884Y-34933609D01*
X36553884Y-34933609D02*
X36625312Y-34957419D01*
X36625312Y-34957419D02*
X36672931Y-35005038D01*
X36672931Y-35005038D02*
X36696741Y-35052657D01*
X36696741Y-35052657D02*
X36720550Y-35147895D01*
X36720550Y-35147895D02*
X36720550Y-35219323D01*
X36720550Y-35219323D02*
X36696741Y-35314561D01*
X36696741Y-35314561D02*
X36672931Y-35362180D01*
X36672931Y-35362180D02*
X36625312Y-35409800D01*
X36625312Y-35409800D02*
X36553884Y-35433609D01*
X36553884Y-35433609D02*
X36434836Y-35433609D01*
X36934836Y-35243133D02*
X37315789Y-35243133D01*
X37125312Y-35433609D02*
X37125312Y-35052657D01*
X41583333Y-27976109D02*
X41583333Y-28333252D01*
X41583333Y-28333252D02*
X41559524Y-28404680D01*
X41559524Y-28404680D02*
X41511905Y-28452300D01*
X41511905Y-28452300D02*
X41440476Y-28476109D01*
X41440476Y-28476109D02*
X41392857Y-28476109D01*
X41797619Y-28023728D02*
X41821428Y-27999919D01*
X41821428Y-27999919D02*
X41869047Y-27976109D01*
X41869047Y-27976109D02*
X41988095Y-27976109D01*
X41988095Y-27976109D02*
X42035714Y-27999919D01*
X42035714Y-27999919D02*
X42059523Y-28023728D01*
X42059523Y-28023728D02*
X42083333Y-28071347D01*
X42083333Y-28071347D02*
X42083333Y-28118966D01*
X42083333Y-28118966D02*
X42059523Y-28190395D01*
X42059523Y-28190395D02*
X41773809Y-28476109D01*
X41773809Y-28476109D02*
X42083333Y-28476109D01*
X37178490Y-43333333D02*
X37202300Y-43357142D01*
X37202300Y-43357142D02*
X37226109Y-43428571D01*
X37226109Y-43428571D02*
X37226109Y-43476190D01*
X37226109Y-43476190D02*
X37202300Y-43547618D01*
X37202300Y-43547618D02*
X37154680Y-43595237D01*
X37154680Y-43595237D02*
X37107061Y-43619047D01*
X37107061Y-43619047D02*
X37011823Y-43642856D01*
X37011823Y-43642856D02*
X36940395Y-43642856D01*
X36940395Y-43642856D02*
X36845157Y-43619047D01*
X36845157Y-43619047D02*
X36797538Y-43595237D01*
X36797538Y-43595237D02*
X36749919Y-43547618D01*
X36749919Y-43547618D02*
X36726109Y-43476190D01*
X36726109Y-43476190D02*
X36726109Y-43428571D01*
X36726109Y-43428571D02*
X36749919Y-43357142D01*
X36749919Y-43357142D02*
X36773728Y-43333333D01*
X37226109Y-42857142D02*
X37226109Y-43142856D01*
X37226109Y-42999999D02*
X36726109Y-42999999D01*
X36726109Y-42999999D02*
X36797538Y-43047618D01*
X36797538Y-43047618D02*
X36845157Y-43095237D01*
X36845157Y-43095237D02*
X36868966Y-43142856D01*
X44226109Y-40130952D02*
X44630871Y-40130952D01*
X44630871Y-40130952D02*
X44678490Y-40107142D01*
X44678490Y-40107142D02*
X44702300Y-40083333D01*
X44702300Y-40083333D02*
X44726109Y-40035714D01*
X44726109Y-40035714D02*
X44726109Y-39940476D01*
X44726109Y-39940476D02*
X44702300Y-39892857D01*
X44702300Y-39892857D02*
X44678490Y-39869047D01*
X44678490Y-39869047D02*
X44630871Y-39845238D01*
X44630871Y-39845238D02*
X44226109Y-39845238D01*
X44726109Y-39345237D02*
X44726109Y-39630951D01*
X44726109Y-39488094D02*
X44226109Y-39488094D01*
X44226109Y-39488094D02*
X44297538Y-39535713D01*
X44297538Y-39535713D02*
X44345157Y-39583332D01*
X44345157Y-39583332D02*
X44368966Y-39630951D01*
X40726109Y-33369047D02*
X40226109Y-33369047D01*
X40226109Y-33369047D02*
X40226109Y-33249999D01*
X40226109Y-33249999D02*
X40249919Y-33178571D01*
X40249919Y-33178571D02*
X40297538Y-33130952D01*
X40297538Y-33130952D02*
X40345157Y-33107142D01*
X40345157Y-33107142D02*
X40440395Y-33083333D01*
X40440395Y-33083333D02*
X40511823Y-33083333D01*
X40511823Y-33083333D02*
X40607061Y-33107142D01*
X40607061Y-33107142D02*
X40654680Y-33130952D01*
X40654680Y-33130952D02*
X40702300Y-33178571D01*
X40702300Y-33178571D02*
X40726109Y-33249999D01*
X40726109Y-33249999D02*
X40726109Y-33369047D01*
X40726109Y-32607142D02*
X40726109Y-32892856D01*
X40726109Y-32749999D02*
X40226109Y-32749999D01*
X40226109Y-32749999D02*
X40297538Y-32797618D01*
X40297538Y-32797618D02*
X40345157Y-32845237D01*
X40345157Y-32845237D02*
X40368966Y-32892856D01*
X42226109Y-33369047D02*
X41726109Y-33369047D01*
X41726109Y-33369047D02*
X41726109Y-33249999D01*
X41726109Y-33249999D02*
X41749919Y-33178571D01*
X41749919Y-33178571D02*
X41797538Y-33130952D01*
X41797538Y-33130952D02*
X41845157Y-33107142D01*
X41845157Y-33107142D02*
X41940395Y-33083333D01*
X41940395Y-33083333D02*
X42011823Y-33083333D01*
X42011823Y-33083333D02*
X42107061Y-33107142D01*
X42107061Y-33107142D02*
X42154680Y-33130952D01*
X42154680Y-33130952D02*
X42202300Y-33178571D01*
X42202300Y-33178571D02*
X42226109Y-33249999D01*
X42226109Y-33249999D02*
X42226109Y-33369047D01*
X41773728Y-32892856D02*
X41749919Y-32869047D01*
X41749919Y-32869047D02*
X41726109Y-32821428D01*
X41726109Y-32821428D02*
X41726109Y-32702380D01*
X41726109Y-32702380D02*
X41749919Y-32654761D01*
X41749919Y-32654761D02*
X41773728Y-32630952D01*
X41773728Y-32630952D02*
X41821347Y-32607142D01*
X41821347Y-32607142D02*
X41868966Y-32607142D01*
X41868966Y-32607142D02*
X41940395Y-32630952D01*
X41940395Y-32630952D02*
X42226109Y-32916666D01*
X42226109Y-32916666D02*
X42226109Y-32607142D01*
X40726109Y-34583333D02*
X40488014Y-34749999D01*
X40726109Y-34869047D02*
X40226109Y-34869047D01*
X40226109Y-34869047D02*
X40226109Y-34678571D01*
X40226109Y-34678571D02*
X40249919Y-34630952D01*
X40249919Y-34630952D02*
X40273728Y-34607142D01*
X40273728Y-34607142D02*
X40321347Y-34583333D01*
X40321347Y-34583333D02*
X40392776Y-34583333D01*
X40392776Y-34583333D02*
X40440395Y-34607142D01*
X40440395Y-34607142D02*
X40464204Y-34630952D01*
X40464204Y-34630952D02*
X40488014Y-34678571D01*
X40488014Y-34678571D02*
X40488014Y-34869047D01*
X40273728Y-34392856D02*
X40249919Y-34369047D01*
X40249919Y-34369047D02*
X40226109Y-34321428D01*
X40226109Y-34321428D02*
X40226109Y-34202380D01*
X40226109Y-34202380D02*
X40249919Y-34154761D01*
X40249919Y-34154761D02*
X40273728Y-34130952D01*
X40273728Y-34130952D02*
X40321347Y-34107142D01*
X40321347Y-34107142D02*
X40368966Y-34107142D01*
X40368966Y-34107142D02*
X40440395Y-34130952D01*
X40440395Y-34130952D02*
X40726109Y-34416666D01*
X40726109Y-34416666D02*
X40726109Y-34107142D01*
X42226109Y-34583333D02*
X41988014Y-34749999D01*
X42226109Y-34869047D02*
X41726109Y-34869047D01*
X41726109Y-34869047D02*
X41726109Y-34678571D01*
X41726109Y-34678571D02*
X41749919Y-34630952D01*
X41749919Y-34630952D02*
X41773728Y-34607142D01*
X41773728Y-34607142D02*
X41821347Y-34583333D01*
X41821347Y-34583333D02*
X41892776Y-34583333D01*
X41892776Y-34583333D02*
X41940395Y-34607142D01*
X41940395Y-34607142D02*
X41964204Y-34630952D01*
X41964204Y-34630952D02*
X41988014Y-34678571D01*
X41988014Y-34678571D02*
X41988014Y-34869047D01*
X41726109Y-34416666D02*
X41726109Y-34107142D01*
X41726109Y-34107142D02*
X41916585Y-34273809D01*
X41916585Y-34273809D02*
X41916585Y-34202380D01*
X41916585Y-34202380D02*
X41940395Y-34154761D01*
X41940395Y-34154761D02*
X41964204Y-34130952D01*
X41964204Y-34130952D02*
X42011823Y-34107142D01*
X42011823Y-34107142D02*
X42130871Y-34107142D01*
X42130871Y-34107142D02*
X42178490Y-34130952D01*
X42178490Y-34130952D02*
X42202300Y-34154761D01*
X42202300Y-34154761D02*
X42226109Y-34202380D01*
X42226109Y-34202380D02*
X42226109Y-34345237D01*
X42226109Y-34345237D02*
X42202300Y-34392856D01*
X42202300Y-34392856D02*
X42178490Y-34416666D01*
X37428490Y-28833333D02*
X37452300Y-28857142D01*
X37452300Y-28857142D02*
X37476109Y-28928571D01*
X37476109Y-28928571D02*
X37476109Y-28976190D01*
X37476109Y-28976190D02*
X37452300Y-29047618D01*
X37452300Y-29047618D02*
X37404680Y-29095237D01*
X37404680Y-29095237D02*
X37357061Y-29119047D01*
X37357061Y-29119047D02*
X37261823Y-29142856D01*
X37261823Y-29142856D02*
X37190395Y-29142856D01*
X37190395Y-29142856D02*
X37095157Y-29119047D01*
X37095157Y-29119047D02*
X37047538Y-29095237D01*
X37047538Y-29095237D02*
X36999919Y-29047618D01*
X36999919Y-29047618D02*
X36976109Y-28976190D01*
X36976109Y-28976190D02*
X36976109Y-28928571D01*
X36976109Y-28928571D02*
X36999919Y-28857142D01*
X36999919Y-28857142D02*
X37023728Y-28833333D01*
X36976109Y-28666666D02*
X36976109Y-28357142D01*
X36976109Y-28357142D02*
X37166585Y-28523809D01*
X37166585Y-28523809D02*
X37166585Y-28452380D01*
X37166585Y-28452380D02*
X37190395Y-28404761D01*
X37190395Y-28404761D02*
X37214204Y-28380952D01*
X37214204Y-28380952D02*
X37261823Y-28357142D01*
X37261823Y-28357142D02*
X37380871Y-28357142D01*
X37380871Y-28357142D02*
X37428490Y-28380952D01*
X37428490Y-28380952D02*
X37452300Y-28404761D01*
X37452300Y-28404761D02*
X37476109Y-28452380D01*
X37476109Y-28452380D02*
X37476109Y-28595237D01*
X37476109Y-28595237D02*
X37452300Y-28642856D01*
X37452300Y-28642856D02*
X37428490Y-28666666D01*
X35416666Y-28226109D02*
X35250000Y-27988014D01*
X35130952Y-28226109D02*
X35130952Y-27726109D01*
X35130952Y-27726109D02*
X35321428Y-27726109D01*
X35321428Y-27726109D02*
X35369047Y-27749919D01*
X35369047Y-27749919D02*
X35392857Y-27773728D01*
X35392857Y-27773728D02*
X35416666Y-27821347D01*
X35416666Y-27821347D02*
X35416666Y-27892776D01*
X35416666Y-27892776D02*
X35392857Y-27940395D01*
X35392857Y-27940395D02*
X35369047Y-27964204D01*
X35369047Y-27964204D02*
X35321428Y-27988014D01*
X35321428Y-27988014D02*
X35130952Y-27988014D01*
X35892857Y-28226109D02*
X35607143Y-28226109D01*
X35750000Y-28226109D02*
X35750000Y-27726109D01*
X35750000Y-27726109D02*
X35702381Y-27797538D01*
X35702381Y-27797538D02*
X35654762Y-27845157D01*
X35654762Y-27845157D02*
X35607143Y-27868966D01*
X44678490Y-33083333D02*
X44702300Y-33107142D01*
X44702300Y-33107142D02*
X44726109Y-33178571D01*
X44726109Y-33178571D02*
X44726109Y-33226190D01*
X44726109Y-33226190D02*
X44702300Y-33297618D01*
X44702300Y-33297618D02*
X44654680Y-33345237D01*
X44654680Y-33345237D02*
X44607061Y-33369047D01*
X44607061Y-33369047D02*
X44511823Y-33392856D01*
X44511823Y-33392856D02*
X44440395Y-33392856D01*
X44440395Y-33392856D02*
X44345157Y-33369047D01*
X44345157Y-33369047D02*
X44297538Y-33345237D01*
X44297538Y-33345237D02*
X44249919Y-33297618D01*
X44249919Y-33297618D02*
X44226109Y-33226190D01*
X44226109Y-33226190D02*
X44226109Y-33178571D01*
X44226109Y-33178571D02*
X44249919Y-33107142D01*
X44249919Y-33107142D02*
X44273728Y-33083333D01*
X44273728Y-32892856D02*
X44249919Y-32869047D01*
X44249919Y-32869047D02*
X44226109Y-32821428D01*
X44226109Y-32821428D02*
X44226109Y-32702380D01*
X44226109Y-32702380D02*
X44249919Y-32654761D01*
X44249919Y-32654761D02*
X44273728Y-32630952D01*
X44273728Y-32630952D02*
X44321347Y-32607142D01*
X44321347Y-32607142D02*
X44368966Y-32607142D01*
X44368966Y-32607142D02*
X44440395Y-32630952D01*
X44440395Y-32630952D02*
X44726109Y-32916666D01*
X44726109Y-32916666D02*
X44726109Y-32607142D01*
X33833333Y-28476109D02*
X33833333Y-28833252D01*
X33833333Y-28833252D02*
X33809524Y-28904680D01*
X33809524Y-28904680D02*
X33761905Y-28952300D01*
X33761905Y-28952300D02*
X33690476Y-28976109D01*
X33690476Y-28976109D02*
X33642857Y-28976109D01*
X34333333Y-28976109D02*
X34047619Y-28976109D01*
X34190476Y-28976109D02*
X34190476Y-28476109D01*
X34190476Y-28476109D02*
X34142857Y-28547538D01*
X34142857Y-28547538D02*
X34095238Y-28595157D01*
X34095238Y-28595157D02*
X34047619Y-28618966D01*
%TO.C,J2*%
D12*
X43015000Y-30495000D02*
X39140000Y-30495000D01*
X43015000Y-30435565D02*
X43015000Y-30495000D01*
X39140000Y-30160030D02*
X39140000Y-30495000D01*
X39140000Y-29005000D02*
X39140000Y-29339970D01*
X43015000Y-29005000D02*
X43015000Y-29064435D01*
X43015000Y-29005000D02*
X39140000Y-29005000D01*
X43750000Y-29005000D02*
X44485000Y-29005000D01*
X44485000Y-29005000D02*
X44485000Y-29750000D01*
%TO.C,U1*%
X43750000Y-37210000D02*
X44080000Y-36970000D01*
X44080000Y-37450000D01*
X43750000Y-37210000D01*
G36*
X44080000Y-37450000D02*
G01*
X43750000Y-37210000D01*
X44080000Y-36970000D01*
X44080000Y-37450000D01*
G37*
X38660000Y-41740000D02*
X38660000Y-37760000D01*
X38760000Y-41740000D02*
X38660000Y-41740000D01*
X43840000Y-41740000D02*
X43740000Y-41740000D01*
X38660000Y-37760000D02*
X38760000Y-37760000D01*
X43740000Y-37760000D02*
X43840000Y-37760000D01*
X43840000Y-37760000D02*
X43840000Y-41740000D01*
%TO.C,D1*%
D11*
X41300000Y-32710000D02*
G75*
G02*
X41200000Y-32710000I-50000J0D01*
G01*
X41200000Y-32710000D02*
G75*
G02*
X41300000Y-32710000I50000J0D01*
G01*
%TO.C,D2*%
X42550000Y-32640000D02*
G75*
G02*
X42450000Y-32640000I-50000J0D01*
G01*
X42450000Y-32640000D02*
G75*
G02*
X42550000Y-32640000I50000J0D01*
G01*
%TO.C,J1*%
D12*
X36335000Y-38950000D02*
X36335000Y-39550000D01*
X34825000Y-40860000D02*
X34825000Y-41440000D01*
X34825000Y-31640000D02*
X34825000Y-31060000D01*
%TD*%
%LPC*%
D13*
%TO.C,J2*%
X39750000Y-29750000D03*
X40750000Y-29750000D03*
X41750000Y-29750000D03*
X42750000Y-29750000D03*
D14*
X43750000Y-29750000D03*
%TD*%
D15*
%TO.C,C1*%
X37750000Y-43570000D03*
X37750000Y-42930000D03*
%TD*%
D16*
%TO.C,U1*%
X43155000Y-42287500D03*
X41885000Y-42287500D03*
X40615000Y-42287500D03*
X39345000Y-42287500D03*
X39345000Y-37212500D03*
X40615000Y-37212500D03*
X41885000Y-37212500D03*
X43155000Y-37212500D03*
%TD*%
D15*
%TO.C,D1*%
X41250000Y-33890000D03*
X41250000Y-33250000D03*
%TD*%
%TO.C,D2*%
X42500000Y-33820000D03*
X42500000Y-33180000D03*
%TD*%
D17*
%TO.C,R2*%
X41250000Y-34680000D03*
X41250000Y-35320000D03*
%TD*%
%TO.C,R3*%
X42500000Y-34680000D03*
X42500000Y-35320000D03*
%TD*%
D15*
%TO.C,C3*%
X38000000Y-28915000D03*
X38000000Y-28275000D03*
%TD*%
D18*
%TO.C,R1*%
X35820000Y-28750000D03*
X35180000Y-28750000D03*
%TD*%
D17*
%TO.C,C2*%
X43750000Y-33820000D03*
X43750000Y-33180000D03*
%TD*%
D19*
%TO.C,J1*%
X32725000Y-38500000D03*
X32725000Y-34000000D03*
D20*
X35175000Y-39250000D03*
X35175000Y-37250000D03*
X35175000Y-35250000D03*
X35175000Y-33250000D03*
X35175000Y-32250000D03*
X35175000Y-34250000D03*
X35175000Y-36250000D03*
X35175000Y-38250000D03*
D21*
X35175000Y-40250000D03*
D22*
X32725000Y-42100000D03*
X32725000Y-30400000D03*
%TD*%
%LPD*%
M02*
